<svg xmlns="http://www.w3.org/2000/svg" viewBox="0 0 166 91">
  <defs>
    <style>
      .cls-1 {
        fill: #ff8ee5;
      }

      .cls-2 {
        fill: #fff;
      }

      .cls-3 {
        fill: #282828;
      }
    </style>
  </defs>
  <title>Ресурс 1</title>
  <g id="Слой_2" data-name="Слой 2">
    <g id="Слой_1-2" data-name="Слой 1">
      <g>
        <g>
          <path class="cls-1" d="M1.5,89.5V18.9A17.43,17.43,0,0,1,18.9,1.5H147.1a17.43,17.43,0,0,1,17.4,17.4V89.5Z"/>
          <path class="cls-2" d="M147.1,3A15.9,15.9,0,0,1,163,18.9V88H3V18.9A15.9,15.9,0,0,1,18.9,3H147.1m0-3H18.9A18.92,18.92,0,0,0,0,18.9V91H166V18.9A18.92,18.92,0,0,0,147.1,0Z"/>
        </g>
        <path class="cls-1" d="M163,91H3V18.9A15.9,15.9,0,0,1,18.9,3H147.1A15.9,15.9,0,0,1,163,18.9h0V91Z"/>
        <g>
          <path class="cls-3" d="M51.41,33.26a6.38,6.38,0,0,1-2.52,5.33,9,9,0,0,1-5.76,1.8,12.55,12.55,0,0,1-3.45-.48,5.55,5.55,0,0,1-2.94-1.67A2,2,0,0,1,36.23,37a1.92,1.92,0,0,1,.69-1.58,2.58,2.58,0,0,1,1.71-.57,11,11,0,0,1,2.28.49,11.49,11.49,0,0,0,2.91.53,2.6,2.6,0,0,0,1.73-.59,1.91,1.91,0,0,0,.7-1.57,2,2,0,0,0-1-1.86,14.46,14.46,0,0,0-2.76-1.07,12.15,12.15,0,0,1-4.2-2,5,5,0,0,1-1.83-4.07,6,6,0,0,1,2.34-5A8.42,8.42,0,0,1,44.21,18a8.48,8.48,0,0,1,4.28.93,2.62,2.62,0,0,1,1.57,2.19q0,2.07-2.22,2.07a6.8,6.8,0,0,1-1.84-.4,6.73,6.73,0,0,0-1.94-.37,3,3,0,0,0-1.62.42,1.55,1.55,0,0,0-.75,1.4,1.61,1.61,0,0,0,.27.93,3.61,3.61,0,0,0,1.65,1l1.92.6A11.48,11.48,0,0,1,49.67,29,5.6,5.6,0,0,1,51.41,33.26Z"/>
          <path class="cls-3" d="M59.48,31.27v5.58q0,3.54-2.49,3.54T54.5,36.85V21.51Q54.5,18,57,18t2.49,3.54V26.7h9.18V21.52q0-3.54,2.49-3.54t2.49,3.53V36.85q0,3.54-2.49,3.54t-2.49-3.54V31.27Z"/>
          <path class="cls-3" d="M85.85,18a3.75,3.75,0,0,1,3.69,2.87L95.06,36.6a5.21,5.21,0,0,1,.36,1.56,2.08,2.08,0,0,1-.72,1.65,2.53,2.53,0,0,1-1.74.63c-1.26,0-2.14-.79-2.64-2.36l-.81-2.56H81.77l-.9,2.74c-.48,1.45-1.28,2.18-2.4,2.18a2.37,2.37,0,0,1-1.71-.65,2.24,2.24,0,0,1-.66-1.69,4.15,4.15,0,0,1,.24-1.44L82,21.18Q83.25,18,85.85,18Zm-.15,5.43-2.49,7.68h5l-2.4-7.68Z"/>
          <path class="cls-3" d="M102.8,31.48v5.38q0,3.53-2.49,3.53t-2.49-3.54V21.75A3.87,3.87,0,0,1,98.57,19a3.65,3.65,0,0,1,2.7-.78h3.87A9.89,9.89,0,0,1,111,19.81a6.06,6.06,0,0,1,2.52,5.28,5.68,5.68,0,0,1-1.39,4A6.33,6.33,0,0,1,108.26,31l3.93,4.38a4.7,4.7,0,0,1,1.47,2.85,2.25,2.25,0,0,1-.67,1.68,2.34,2.34,0,0,1-1.7.66q-1.26,0-2.67-1.77Zm0-3.3h2.31q3.18,0,3.18-2.73t-3.12-2.61H102.8Z"/>
          <path class="cls-3" d="M125.78,18.25q3.54,0,3.54,2.34t-3.54,2.31H121.7v3.9h3.51c2.36,0,3.54.76,3.54,2.29s-1.18,2.3-3.54,2.3H121.7v4.17h4.23c2.36,0,3.54.76,3.54,2.29s-1.18,2.3-3.54,2.3h-5.82a4.1,4.1,0,0,1-2.64-.65,3.24,3.24,0,0,1-.75-2.5V21.76a3.92,3.92,0,0,1,.75-2.73,3.65,3.65,0,0,1,2.7-.78Z"/>
        </g>
        <g>
          <path class="cls-2" d="M32.19,57.35V69.44c0,.8-.37,1.2-1.1,1.2a1.15,1.15,0,0,1-.77-.29,1.22,1.22,0,0,1-.36-.86v-1H29.9a4.81,4.81,0,0,1-4.13,2.13,5.17,5.17,0,0,1-4.43-2.26,8.83,8.83,0,0,1,.09-9.89A5.42,5.42,0,0,1,29,57.14a5.14,5.14,0,0,1,1,.91,2.46,2.46,0,0,1,.32-1.57,1.06,1.06,0,0,1,.77-.32C31.83,56.16,32.19,56.55,32.19,57.35Zm-10,6.07A6.62,6.62,0,0,0,23,66.88a3.16,3.16,0,0,0,3,1.7A3.5,3.5,0,0,0,29.1,67a6.52,6.52,0,0,0,.9-3.58,6.72,6.72,0,0,0-.86-3.51,3.3,3.3,0,0,0-3-1.7A3.32,3.32,0,0,0,23,59.86a6.7,6.7,0,0,0-.82,3.56Z"/>
          <path class="cls-2" d="M35.65,69.44V57.53a1.28,1.28,0,0,1,.31-.88,1,1,0,0,1,.82-.36c.79,0,1.18.41,1.18,1.24V58h0a5.08,5.08,0,0,1,7.53-.33,5.67,5.67,0,0,1,1.33,3.88v7.89A1,1,0,0,1,46,70.59a.87.87,0,0,1-.36,0,1.08,1.08,0,0,1-.81-.33,1.09,1.09,0,0,1-.32-.82V61.59a3.34,3.34,0,0,0-.92-2.42,3.36,3.36,0,0,0-4.78,0A3.44,3.44,0,0,0,38,61.64v7.8c0,.83-.37,1.25-1.13,1.25a1.11,1.11,0,0,1-.85-.36A1.3,1.3,0,0,1,35.65,69.44Z"/>
          <path class="cls-2" d="M60.7,49.92a1,1,0,0,1,.82.36,1.28,1.28,0,0,1,.31.88V69.44a1.27,1.27,0,0,1-.32.85,1,1,0,0,1-.81.35,1.15,1.15,0,0,1-.81-.3,1.2,1.2,0,0,1-.37-.77v-.86h-.05a3.65,3.65,0,0,1-3.55,1.93,5.75,5.75,0,0,1-4.72-2.16,7.71,7.71,0,0,1-1.59-5,8.14,8.14,0,0,1,1.54-5,5.34,5.34,0,0,1,4.51-2.33A4.62,4.62,0,0,1,59.47,58h.05V51.11a1.13,1.13,0,0,1,1.07-1.19ZM51.93,63.37a7,7,0,0,0,.78,3.48,3.16,3.16,0,0,0,2.92,1.73,3.61,3.61,0,0,0,3.21-1.67,6.56,6.56,0,0,0,.91-3.62,5.8,5.8,0,0,0-1-3.45,3.52,3.52,0,0,0-3.08-1.63,3.2,3.2,0,0,0-2.89,1.73A6.53,6.53,0,0,0,51.93,63.37Z"/>
          <path class="cls-2" d="M82.4,68.58h-.05a4.25,4.25,0,0,1-3.8,2,5.33,5.33,0,0,1-4.5-2.34,8.22,8.22,0,0,1-1.53-5A7.93,7.93,0,0,1,74,58.39a5.31,5.31,0,0,1,4.53-2.23,5.25,5.25,0,0,1,2.24.48,3.54,3.54,0,0,1,1.68,1.52,4.54,4.54,0,0,1,.1-1.22.93.93,0,0,1,1-.65,1.05,1.05,0,0,1,1.2.88,1.07,1.07,0,0,1,0,.31v12a7.11,7.11,0,0,1-1.59,4.89,5.91,5.91,0,0,1-4.7,1.87,8.89,8.89,0,0,1-2.89-.52,4.19,4.19,0,0,1-2.37-1.53,1.65,1.65,0,0,1-.28-.83c0-.52.29-.78.88-.78a3.44,3.44,0,0,1,1.59.69,5.67,5.67,0,0,0,3.17.92,3.25,3.25,0,0,0,3.2-1.77A8.86,8.86,0,0,0,82.4,68.58Zm-7.57-5.16a6.65,6.65,0,0,0,.86,3.43,3.2,3.2,0,0,0,2.9,1.73,3.48,3.48,0,0,0,3-1.62,5.75,5.75,0,0,0,1-3.38,6.83,6.83,0,0,0-.89-3.64,3.53,3.53,0,0,0-3.18-1.73A3.19,3.19,0,0,0,75.69,60,6.79,6.79,0,0,0,74.83,63.42Z"/>
          <path class="cls-2" d="M94,68.58a6.34,6.34,0,0,0,4-1.43,1.5,1.5,0,0,1,.89-.41c.62,0,.94.33.94,1a1.51,1.51,0,0,1-.47.83,6.16,6.16,0,0,1-2.45,1.56,8.22,8.22,0,0,1-2.86.52,5.84,5.84,0,0,1-4.83-2.21,7.9,7.9,0,0,1-1.67-5.16,7.31,7.31,0,0,1,1.75-5A6,6,0,0,1,94,56.16a5.53,5.53,0,0,1,4.35,2A6.77,6.77,0,0,1,100,62.71c0,1.06-.51,1.58-1.53,1.58H89.81a4.25,4.25,0,0,0,1.21,3A4,4,0,0,0,94,68.58Zm-4.17-6h7.85a4.8,4.8,0,0,0-.89-3A3.25,3.25,0,0,0,94,58.21a3.92,3.92,0,0,0-3,1.27,4.28,4.28,0,0,0-1.19,3.05Z"/>
          <path class="cls-2" d="M103.07,58.34h-.82a1.23,1.23,0,0,1-.8-.29,1,1,0,0,1-.08-1.41,1,1,0,0,1,.41-.28,7,7,0,0,1,1.29-.07V53.11c0-.72.37-1.09,1.13-1.09a1,1,0,0,1,1.18.79,1.09,1.09,0,0,1,0,.36v3.12h1.28c.72,0,1.09.34,1.09,1a.89.89,0,0,1-1,1h-1.38V69.5a1.05,1.05,0,0,1-.36.83,1.36,1.36,0,0,1-.87.31q-1.08,0-1.08-1.2Z"/>
          <path class="cls-2" d="M122.46,71a9.57,9.57,0,0,1-4.08-1.14c-.94-.59-1.4-1.23-1.4-1.93a1.8,1.8,0,0,1,.59-1.43,2.31,2.31,0,0,1,1.54-.49,8.68,8.68,0,0,1,2,.47,8.53,8.53,0,0,0,2.6.47,2.19,2.19,0,0,0,1.49-.54,1.71,1.71,0,0,0,.64-1.39,1.79,1.79,0,0,0-.89-1.66,11.56,11.56,0,0,0-2.41-1,11.48,11.48,0,0,1-3.77-1.75A4.47,4.47,0,0,1,117.18,57a5.55,5.55,0,0,1,1.51-3.92,6.85,6.85,0,0,1,3.77-2V49.76c0-.95.36-1.43,1.07-1.43a.89.89,0,0,1,.88.42,1.92,1.92,0,0,1,.18,1V51a9,9,0,0,1,2.94.65q1.74.75,1.74,2.13c0,1.23-.65,1.85-2,1.85a6.56,6.56,0,0,1-1.7-.33,6.55,6.55,0,0,0-1.7-.32,2.67,2.67,0,0,0-1.43.38,1.43,1.43,0,0,0-.68,1.25,1.29,1.29,0,0,0,.24.83,3.09,3.09,0,0,0,1.48.86q.88.26,1.74.54c3.48,1.18,5.23,3.1,5.23,5.77a5.88,5.88,0,0,1-1.67,4.26,6.92,6.92,0,0,1-4.24,2v1.77c0,1-.35,1.48-1.06,1.48s-1.07-.5-1.07-1.48Z"/>
          <path class="cls-2" d="M140.17,63.59c-.83.09-1.29.13-1.38.13a5.09,5.09,0,0,1-4-1.82,6.07,6.07,0,0,1-1.56-4.18,6.38,6.38,0,0,1,2.06-4.87,7.13,7.13,0,0,1,5-1.92,6.38,6.38,0,0,1,4.81,1.92,6.82,6.82,0,0,1,1.9,4.92q0,4.11-4.45,9.67c-1.94,2.43-3.35,3.65-4.23,3.64a2,2,0,0,1-1.45-.61,1.92,1.92,0,0,1-.63-1.42,4,4,0,0,1,1.24-2.16C138.12,66.2,139,65.1,140.17,63.59Zm2.42-6a2.67,2.67,0,0,0-.71-1.86,2.19,2.19,0,0,0-1.74-.78,2.24,2.24,0,0,0-1.74.78,2.82,2.82,0,0,0,0,3.71,2.31,2.31,0,0,0,3.48,0,2.68,2.68,0,0,0,.71-1.89Z"/>
        </g>
      </g>
    </g>
  </g>
</svg>
