<svg xmlns="http://www.w3.org/2000/svg" viewBox="0 0 160 85">
  <defs>
    <style>
      .cls-1 {
        fill: #ff8ee5;
      }

      .cls-2 {
        fill: #282828;
      }

      .cls-3 {
        fill: #fff;
      }
    </style>
  </defs>
  <title>Ресурс 1</title>
  <g id="Слой_2" data-name="Слой 2">
    <g id="Слой_1-2" data-name="Слой 1">
      <g>
        <path class="cls-1" d="M0,0H160a0,0,0,0,1,0,0V69.1A15.9,15.9,0,0,1,144.1,85H15.9A15.9,15.9,0,0,1,0,69.1V0A0,0,0,0,1,0,0Z"/>
        <g>
          <path class="cls-2" d="M48.41,30.26a6.37,6.37,0,0,1-2.52,5.33,9,9,0,0,1-5.76,1.8,12.29,12.29,0,0,1-3.45-.48,5.6,5.6,0,0,1-2.94-1.67A2,2,0,0,1,33.23,34a1.92,1.92,0,0,1,.69-1.58,2.6,2.6,0,0,1,1.71-.57,10.88,10.88,0,0,1,2.28.49,11.56,11.56,0,0,0,2.91.53,2.63,2.63,0,0,0,1.73-.59,1.93,1.93,0,0,0,.7-1.57,2,2,0,0,0-1-1.86,14.3,14.3,0,0,0-2.76-1.07,12.09,12.09,0,0,1-4.2-2,5,5,0,0,1-1.83-4.07,6,6,0,0,1,2.34-5A8.41,8.41,0,0,1,41.21,15a8.42,8.42,0,0,1,4.28.93,2.62,2.62,0,0,1,1.57,2.19q0,2.07-2.22,2.07A6.63,6.63,0,0,1,43,19.79a6.73,6.73,0,0,0-1.94-.37,3,3,0,0,0-1.62.42,1.56,1.56,0,0,0-.75,1.4,1.59,1.59,0,0,0,.27.93,3.59,3.59,0,0,0,1.65,1l1.92.6A11.32,11.32,0,0,1,46.67,26,5.59,5.59,0,0,1,48.41,30.26Z"/>
          <path class="cls-2" d="M56.48,28.27v5.58q0,3.54-2.49,3.54T51.5,33.85V18.51Q51.5,15,54,15t2.49,3.54v5.16h9.18V18.52q0-3.54,2.49-3.54t2.49,3.53V33.85q0,3.54-2.49,3.54t-2.49-3.54V28.27Z"/>
          <path class="cls-2" d="M82.85,15a3.74,3.74,0,0,1,3.69,2.87l5.52,15.73a5.15,5.15,0,0,1,.36,1.56,2.09,2.09,0,0,1-.72,1.65,2.55,2.55,0,0,1-1.74.63c-1.26,0-2.14-.79-2.64-2.36l-.81-2.56H78.77l-.9,2.74c-.48,1.45-1.28,2.18-2.4,2.18a2.35,2.35,0,0,1-1.71-.65,2.25,2.25,0,0,1-.66-1.69,4.18,4.18,0,0,1,.24-1.44L79,18.18Q80.24,15,82.85,15Zm-.15,5.43-2.49,7.68h5l-2.4-7.68Z"/>
          <path class="cls-2" d="M99.8,28.48v5.38q0,3.53-2.49,3.53t-2.49-3.54V18.75A3.9,3.9,0,0,1,95.57,16a3.69,3.69,0,0,1,2.7-.78h3.87A9.92,9.92,0,0,1,108,16.81a6.08,6.08,0,0,1,2.52,5.28,5.69,5.69,0,0,1-1.39,4A6.33,6.33,0,0,1,105.26,28l3.93,4.38a4.69,4.69,0,0,1,1.47,2.85,2.25,2.25,0,0,1-.67,1.68,2.34,2.34,0,0,1-1.7.66q-1.26,0-2.67-1.77Zm0-3.3h2.31q3.18,0,3.18-2.73t-3.12-2.61H99.8Z"/>
          <path class="cls-2" d="M122.78,15.25q3.54,0,3.54,2.34t-3.54,2.31H118.7v3.9h3.51c2.36,0,3.54.76,3.54,2.29s-1.18,2.3-3.54,2.3H118.7v4.17h4.23c2.36,0,3.54.76,3.54,2.29s-1.18,2.3-3.54,2.3h-5.82a4.11,4.11,0,0,1-2.64-.65,3.23,3.23,0,0,1-.75-2.5V18.76a3.91,3.91,0,0,1,.75-2.73,3.69,3.69,0,0,1,2.7-.78Z"/>
        </g>
        <g>
          <path class="cls-3" d="M29.19,54.35V66.44c0,.8-.37,1.2-1.1,1.2a1.13,1.13,0,0,1-.77-.29,1.25,1.25,0,0,1-.36-.86v-1H26.9a4.81,4.81,0,0,1-4.13,2.13,5.17,5.17,0,0,1-4.43-2.26,8.83,8.83,0,0,1,.09-9.89A5.43,5.43,0,0,1,27,55.05a2.49,2.49,0,0,1,.32-1.57,1.05,1.05,0,0,1,.77-.32C28.83,53.16,29.19,53.55,29.19,54.35Zm-10,6.07A6.69,6.69,0,0,0,20,63.88a3.16,3.16,0,0,0,3,1.7A3.48,3.48,0,0,0,26.1,64,6.54,6.54,0,0,0,27,60.42a6.71,6.71,0,0,0-.86-3.51,3.3,3.3,0,0,0-3-1.7A3.33,3.33,0,0,0,20,56.86,6.72,6.72,0,0,0,19.18,60.42Z"/>
          <path class="cls-3" d="M32.65,66.44V54.53a1.3,1.3,0,0,1,.31-.88,1,1,0,0,1,.82-.36c.79,0,1.18.41,1.18,1.24V55L35,55a4.62,4.62,0,0,1,3.86-1.84,4.62,4.62,0,0,1,3.67,1.51,5.68,5.68,0,0,1,1.33,3.88v7.89a1,1,0,0,1-1.18,1.15,1.07,1.07,0,0,1-.81-.33,1.1,1.1,0,0,1-.32-.82V58.59a3.38,3.38,0,0,0-.92-2.42,3.15,3.15,0,0,0-2.38-1,3.11,3.11,0,0,0-2.4,1A3.45,3.45,0,0,0,35,58.64v7.8c0,.83-.37,1.25-1.13,1.25a1.13,1.13,0,0,1-.85-.36A1.29,1.29,0,0,1,32.65,66.44Z"/>
          <path class="cls-3" d="M57.7,46.92a1,1,0,0,1,.82.36,1.3,1.3,0,0,1,.31.88V66.44a1.25,1.25,0,0,1-.32.85,1.05,1.05,0,0,1-.81.35,1.16,1.16,0,0,1-.81-.3,1.2,1.2,0,0,1-.37-.77v-.86h-.05a3.64,3.64,0,0,1-3.55,1.93,5.76,5.76,0,0,1-4.72-2.16,7.71,7.71,0,0,1-1.59-5,8.17,8.17,0,0,1,1.54-5,5.34,5.34,0,0,1,4.51-2.33,4.63,4.63,0,0,1,3.81,1.89h.05V48.11a1.13,1.13,0,0,1,1.18-1.19ZM48.93,60.37a7,7,0,0,0,.78,3.48,3.16,3.16,0,0,0,2.92,1.73,3.6,3.6,0,0,0,3.21-1.67,6.57,6.57,0,0,0,.91-3.62,5.85,5.85,0,0,0-1-3.45,3.53,3.53,0,0,0-3.08-1.63,3.19,3.19,0,0,0-2.89,1.73A6.52,6.52,0,0,0,48.93,60.37Z"/>
          <path class="cls-3" d="M79.4,65.58l-.05,0a4.25,4.25,0,0,1-3.8,2,5.33,5.33,0,0,1-4.5-2.34,8.23,8.23,0,0,1-1.53-5A7.91,7.91,0,0,1,71,55.39a5.32,5.32,0,0,1,4.53-2.23,5.2,5.2,0,0,1,2.24.48,3.53,3.53,0,0,1,1.68,1.52,4.56,4.56,0,0,1,.1-1.22.93.93,0,0,1,1-.65,1.05,1.05,0,0,1,1.2,1.19v12a7.09,7.09,0,0,1-1.59,4.89,5.9,5.9,0,0,1-4.7,1.87,8.89,8.89,0,0,1-2.89-.52,4.24,4.24,0,0,1-2.37-1.53,1.63,1.63,0,0,1-.28-.83c0-.52.29-.78.88-.78a3.47,3.47,0,0,1,1.59.69,5.66,5.66,0,0,0,3.17.92,3.26,3.26,0,0,0,3.2-1.77A8.84,8.84,0,0,0,79.4,65.58Zm-7.57-5.16a6.69,6.69,0,0,0,.86,3.43,3.22,3.22,0,0,0,2.9,1.73,3.48,3.48,0,0,0,3-1.62,5.79,5.79,0,0,0,1-3.38,6.77,6.77,0,0,0-.89-3.64,3.54,3.54,0,0,0-3.18-1.73A3.19,3.19,0,0,0,72.69,57,6.8,6.8,0,0,0,71.83,60.42Z"/>
          <path class="cls-3" d="M91,65.58a6.36,6.36,0,0,0,4-1.43,1.51,1.51,0,0,1,.89-.41c.62,0,.94.33.94,1a1.51,1.51,0,0,1-.47.83,6.16,6.16,0,0,1-2.45,1.56,8.31,8.31,0,0,1-2.86.52,5.86,5.86,0,0,1-4.83-2.21,7.93,7.93,0,0,1-1.67-5.16,7.34,7.34,0,0,1,1.75-5A6,6,0,0,1,91,53.16a5.54,5.54,0,0,1,4.35,2A6.8,6.8,0,0,1,97,59.71c0,1.06-.51,1.58-1.53,1.58H86.81a4.24,4.24,0,0,0,1.21,3A4,4,0,0,0,91,65.58Zm-4.17-6h7.85a4.82,4.82,0,0,0-.89-3A3.24,3.24,0,0,0,91,55.21a3.94,3.94,0,0,0-3,1.27A4.28,4.28,0,0,0,86.81,59.53Z"/>
          <path class="cls-3" d="M100.07,55.34h-.82a1.23,1.23,0,0,1-.8-.29,1,1,0,0,1,.33-1.69,6.78,6.78,0,0,1,1.29-.07V50.11c0-.72.37-1.09,1.13-1.09a1,1,0,0,1,1.18,1.15v3.12h1.28c.72,0,1.09.34,1.09,1s-.33,1-1,1h-1.38V66.5a1.05,1.05,0,0,1-.36.83,1.32,1.32,0,0,1-.87.31q-1.08,0-1.08-1.2Z"/>
          <path class="cls-3" d="M119.46,68a9.46,9.46,0,0,1-4.08-1.14c-.94-.59-1.4-1.23-1.4-1.93a1.78,1.78,0,0,1,.59-1.43,2.33,2.33,0,0,1,1.54-.49,8.54,8.54,0,0,1,2,.47,8.8,8.8,0,0,0,2.6.47,2.22,2.22,0,0,0,1.49-.54,1.71,1.71,0,0,0,.64-1.39,1.78,1.78,0,0,0-.89-1.66,11.42,11.42,0,0,0-2.41-1,11.37,11.37,0,0,1-3.77-1.75A4.49,4.49,0,0,1,114.18,54a5.54,5.54,0,0,1,1.51-3.92,6.89,6.89,0,0,1,3.77-2V46.76c0-.95.36-1.43,1.07-1.43a.88.88,0,0,1,.88.42,2,2,0,0,1,.18,1V48a8.76,8.76,0,0,1,2.94.65q1.74.75,1.74,2.13c0,1.23-.65,1.85-2,1.85a6.54,6.54,0,0,1-1.7-.33,6.36,6.36,0,0,0-1.7-.32,2.63,2.63,0,0,0-1.43.38,1.42,1.42,0,0,0-.68,1.25,1.32,1.32,0,0,0,.24.83,3.08,3.08,0,0,0,1.48.86q.89.25,1.74.54c3.48,1.18,5.23,3.1,5.23,5.77a5.9,5.9,0,0,1-1.67,4.26,6.88,6.88,0,0,1-4.24,2v1.77c0,1-.35,1.48-1.06,1.48s-1.07-.5-1.07-1.48Z"/>
          <path class="cls-3" d="M137.17,60.59c-.83.09-1.29.13-1.38.13a5.08,5.08,0,0,1-4-1.82,6.06,6.06,0,0,1-1.56-4.18,6.41,6.41,0,0,1,2.06-4.87,7.13,7.13,0,0,1,5-1.92,6.36,6.36,0,0,1,4.81,1.92A6.83,6.83,0,0,1,144,54.77q0,4.11-4.45,9.67-2.91,3.65-4.23,3.64a2,2,0,0,1-1.45-.61,1.92,1.92,0,0,1-.63-1.42,4,4,0,0,1,1.24-2.16Q135.44,62.86,137.17,60.59Zm2.42-6a2.68,2.68,0,0,0-.71-1.86,2.22,2.22,0,0,0-1.74-.78,2.25,2.25,0,0,0-1.74.78,2.81,2.81,0,0,0,0,3.71,2.26,2.26,0,0,0,1.74.79,2.23,2.23,0,0,0,1.74-.79A2.68,2.68,0,0,0,139.59,54.55Z"/>
        </g>
      </g>
    </g>
  </g>
</svg>
