<svg xmlns="http://www.w3.org/2000/svg" viewBox="0 0 313.12 108.78"><defs><style>.cls-1{fill:#04befa;}</style></defs><title>Ресурс 10</title><g id="Слой_2" data-name="Слой 2"><g id="Слой_1-2" data-name="Слой 1"><path class="cls-1" d="M59,8.26c0,5.78-3.54,8-12,8l-30.12,0V43.24l21.44,0c8.24,0,11.67,3,11.67,7.61,0,4.34-3.43,7.89-11.67,7.89l-21.44,0V96c0,8.14-1.58,12.26-8.36,12.26-6.58,0-8.49-4-8.49-12V12.32Q0,0,12,0H47.65C55.65,0,59,2.3,59,8.26Z"/><path class="cls-1" d="M120.24,98q0,10.31-8.16,10.3-5,0-6.69-4.09c-.27-1.07-.71-2.56-1.34-4.46h-.13q-7.48,8.55-19.79,8.55a28.76,28.76,0,0,1-23.41-11,37.09,37.09,0,0,1-8.15-24,37.7,37.7,0,0,1,5.08-19.51A31.29,31.29,0,0,1,73,40.14a30.12,30.12,0,0,1,11.9-2.5,25.1,25.1,0,0,1,19.12,8.3l1.21-3.4a7,7,0,0,1,6.82-4.4q8.16,0,8.16,10.17ZM86.74,52.35q-8.73,0-13.3,6.5-3.89,5.62-3.89,14.24,0,8.39,3.76,14a14.78,14.78,0,0,0,13,6.75q8.73,0,13.3-6.63,3.89-5.49,3.89-14.12,0-8.37-3.76-14A14.79,14.79,0,0,0,86.74,52.35Z"/><path class="cls-1" d="M162.79,37.62a39.92,39.92,0,0,1,13.64,2.26q8.43,3,8.43,8.68,0,6.66-6.71,6.66a17.61,17.61,0,0,1-6.71-1.57A21.68,21.68,0,0,0,163,52.08a15.9,15.9,0,0,0-13.56,6.77A23.08,23.08,0,0,0,145,73.13q0,9,4.29,14.67,4.83,6.53,14.09,6.52a27,27,0,0,0,8.72-1.95q5.37-2,6.57-2a6.58,6.58,0,0,1,5,2,6.71,6.71,0,0,1,1.88,4.84q0,6.67-12.31,10.19a40.18,40.18,0,0,1-10.83,1.38q-16,0-25.41-10.44-9-9.8-9-25.14,0-15.09,9.23-25Q147,37.62,162.79,37.62Z"/><path class="cls-1" d="M256.42,69.26a7.86,7.86,0,0,1-2.88,6.47,11.46,11.46,0,0,1-7.44,2.33H205.47a15.8,15.8,0,0,0,5.63,12,19.69,19.69,0,0,0,13.27,4.59q6.57,0,14.82-4t9.05-4q6.7,0,6.71,6.42a7.57,7.57,0,0,1-2,4.52q-4.27,5.28-13.1,8.3a49.09,49.09,0,0,1-15.92,2.64Q208,108.61,198,98.05q-9.49-10-9.5-25.27a35.37,35.37,0,0,1,9.7-25.08q9.69-10.38,25.21-10.38a32.14,32.14,0,0,1,23.33,9.5Q256.43,56.32,256.42,69.26ZM239.7,67.12a18,18,0,0,0-4.61-11.82q-4.35-4.77-11.7-4.78A17.25,17.25,0,0,0,211,55.3a17.58,17.58,0,0,0-5.55,11.82Z"/><path class="cls-1" d="M313.12,86.6a19,19,0,0,1-8.44,16.24,30.28,30.28,0,0,1-18.13,5.42q-14.85,0-22.66-8.19a8.44,8.44,0,0,1-2.65-5.92q0-7.17,7.18-7.17c1.68,0,4.38,1.19,8.12,3.58s7.28,3.59,10.64,3.59a13.46,13.46,0,0,0,6.55-1.51,5.55,5.55,0,0,0,3.4-5.16q0-4.28-8.69-8.19-14.1-6.17-16-7.42-8.68-5.79-8.69-14.61a18.3,18.3,0,0,1,7.68-15.36q6.93-5.16,16.87-5.17A35.29,35.29,0,0,1,302.54,40q8.94,3.9,8.94,9.82a6.73,6.73,0,0,1-1.88,4.85,6.39,6.39,0,0,1-4.79,2q-2.26,0-7.81-3t-9.19-3a10.4,10.4,0,0,0-5.67,1.51,5.19,5.19,0,0,0-2.89,4.78c0,2,1.3,3.65,3.9,4.91q6.56,2.9,13.22,5.79a53,53,0,0,1,12.09,7.31Q313.13,79,313.12,86.6Z"/></g></g></svg>