<svg xmlns="http://www.w3.org/2000/svg" viewBox="0 0 435.76 125.93"><defs><style>.cls-1{fill:#04befa;}.cls-2{fill:#f44e63;}.cls-3{fill:#fff;}</style></defs><title>Ресурс 1</title><g id="Слой_2" data-name="Слой 2"><g id="Слой_1-2" data-name="Слой 1"><path class="cls-1" d="M145.22,62.2q0,15.19-8.68,25.42-9.07,10.72-24,10.72-14.69,0-24-10.85Q79.7,77.14,79.71,62.2q0-15.2,8.68-25.42,9.31-11,24.14-11,15.07,0,24.14,10.86Q145.22,46.88,145.22,62.2ZM112.53,40.49A14.46,14.46,0,0,0,99.66,47.4q-3.73,5.9-3.73,14.74t3.86,14.6a14.35,14.35,0,0,0,12.74,6.92,14.15,14.15,0,0,0,12.74-6.92Q129,71,129,62.14t-3.73-14.61A14.3,14.3,0,0,0,112.53,40.49Z"/><path class="cls-1" d="M210.83,69.73q0,13.8-7.79,21.21t-21.58,7.4q-13.68,0-21.52-7.47t-7.86-21.14V36.78q0-10.33,8.11-10.34t8.11,10.34V67.44q0,16.22,13.16,16.22t13.15-16.22V36.78q0-10.33,8.24-10.34,8,0,8,10.34Z"/><path class="cls-1" d="M269.9,76.38a19.26,19.26,0,0,1-8.56,16.47q-7.66,5.49-18.39,5.49-15.07,0-23-8.3a8.57,8.57,0,0,1-2.68-6q0-7.28,7.28-7.28,2.55,0,8.24,3.64T243.59,84a13.68,13.68,0,0,0,6.64-1.53,5.65,5.65,0,0,0,3.45-5.24q0-4.33-8.81-8.3-14.31-6.26-16.22-7.54-8.82-5.86-8.81-14.81A18.54,18.54,0,0,1,227.63,31q7-5.23,17.11-5.24a35.8,35.8,0,0,1,14.43,3.32q9.07,4,9.07,10A6.79,6.79,0,0,1,266.32,44a6.44,6.44,0,0,1-4.85,2q-2.3,0-7.92-3.07t-9.32-3.06a10.55,10.55,0,0,0-5.75,1.53,5.29,5.29,0,0,0-2.94,4.85q0,3.08,4,5,6.65,2.93,13.41,5.87a53.7,53.7,0,0,1,12.27,7.41Q269.89,68.72,269.9,76.38Z"/><path class="cls-1" d="M296,9.45a9.34,9.34,0,0,1-2.75,6.77,9,9,0,0,1-6.7,2.81,9.24,9.24,0,0,1-6.77-2.81A9.2,9.2,0,0,1,277,9.45a9,9,0,0,1,2.81-6.7A9.34,9.34,0,0,1,286.55,0a9.11,9.11,0,0,1,6.64,2.81A9.09,9.09,0,0,1,296,9.45Zm-1.41,77.8q0,10.45-8.11,10.46t-8.11-10.46V36.89q0-10.45,8.11-10.45t8.11,10.33Z"/><path class="cls-1" d="M365.05,87.36q0,10.35-8.24,10.35-8,0-8-10.35v-31q0-16-13.54-16T321.88,56.25v30.9q0,10.56-8,10.56-8.23,0-8.24-10.57V37.26q0-10.44,8-10.44a6.89,6.89,0,0,1,6.38,3.45c.43,1.19.9,2.43,1.41,3.7l.13.26q6.51-7.78,18.52-7.79t18.51,7.21q6.39,7.23,6.39,19.48Z"/><path class="cls-1" d="M435.76,87.41a78.47,78.47,0,0,1-1.15,14.16q-2.3,12.24-11.23,18.49-8.31,5.86-21.21,5.87-14.18,0-23.11-6-5.62-3.81-5.62-8.5a6.2,6.2,0,0,1,1.85-4.7,6.64,6.64,0,0,1,4.79-1.78q2.18,0,7.66,2.76a33.17,33.17,0,0,0,15.07,3.89q17.51,0,17.5-21V88h-.38q-6.27,9.7-18.39,9.71-13.68,0-22.1-11.48-7.67-10.32-7.66-24.35,0-14.54,7.92-24.73a27.51,27.51,0,0,1,22.86-11.22q11.88,0,17.75,8.68,1.53-7.78,8.05-7.79c3.06,0,5.15,1,6.25,3.06q1.15,2.31,1.15,7.27ZM420.82,63.09q0-9.57-3.59-15.45-4.35-7-13.33-7-7.69,0-12,7.15A26.7,26.7,0,0,0,388,62.07a26.61,26.61,0,0,0,3.72,14.31q4.35,7,12.3,7A14.82,14.82,0,0,0,416.72,77Q420.81,71.4,420.82,63.09Z"/><path class="cls-2" d="M30.2,57V90.37A3.85,3.85,0,0,0,32.75,94l16.4,3.83A3.8,3.8,0,0,0,54.2,94.2V55.92a3.83,3.83,0,0,0-3.8-3.86l-16.4,1A3.84,3.84,0,0,0,30.2,57Z"/><path class="cls-1" d="M16.23,35.56h40V14.14q0-10.82,8.11-10.82t8.11,10.84V87.63q0,10.71-8.11,10.71T56.2,87.58V50.25h-40V87.58q0,10.77-8.24,10.76-8,0-8-10.71V14.16Q0,3.33,8,3.32q8.24,0,8.24,10.82Z"/><circle class="cls-3" cx="34.23" cy="73.16" r="1.9"/></g></g></svg>