<svg xmlns="http://www.w3.org/2000/svg" viewBox="0 0 783.55 115.88">
  <defs>
    <style>
      .cls-1 {
        fill: #fff;
      }
    </style>
  </defs>
  <title>Ресурс 1</title>
  <g id="Слой_2" data-name="Слой 2">
    <g id="Слой_1-2" data-name="Слой 1">
      <g>
        <path class="cls-1" d="M106.45,53.39V50.77c0-15.55,0-31.1,0-46.65,0-2.12.67-2.68,2.69-2.65,7.65.09,15.3.07,22.95,0,1.77,0,2.66.3,2.66,2.44q-.1,54.26-.06,108.51c0,.49-.06,1-.11,1.77-.81,0-1.61.11-2.4.12-7.48,0-15-.06-22.45,0a3.46,3.46,0,0,1-3.49-2.06q-15.57-27-31.28-53.86a7.33,7.33,0,0,0-2-2.4V114.1H44.7c0-.81-.12-1.62-.12-2.42q0-53.64,0-107.26c0-2.3.61-3,2.89-3q12.72.17,25.44,0a4.26,4.26,0,0,1,4.32,2.48c9,15.81,18.08,31.57,27.14,47.33.45.78,1,1.53,1.46,2.28Z"/>
        <path class="cls-1" d="M149.82,114.32v-2.89q0-53.39-.06-106.77c0-2.56.69-3.24,3.19-3.21,14.21.19,28.43.09,42.64.37a56,56,0,0,1,21.58,4.41C228.11,11,233.63,20,236.36,31.1c3.19,12.89,3.21,26,2.18,39.14a100.78,100.78,0,0,1-3.15,18.08c-3.79,14.05-13.41,22-27.55,24.4a117.11,117.11,0,0,1-17.34,1.53c-12.47.23-24.94.07-37.42.07Zm29.69-25.75c4.28,0,8.34.06,12.4,0,8.69-.16,13.12-3.6,15.32-12a73.36,73.36,0,0,0,1.65-25A76.94,76.94,0,0,0,206.16,37a10.12,10.12,0,0,0-9-7.55c-4.85-.5-9.76-.38-14.63-.7-2.47-.17-3.26.58-3.25,3.15.11,17.85.06,35.71.07,53.56C179.32,86.41,179.43,87.38,179.51,88.57Z"/>
        <path class="cls-1" d="M574.74,57.82c-.26,9.2-.68,18.14-3,26.87-4.56,17-15.46,27.07-32.77,30a72.61,72.61,0,0,1-30.39-1c-15.2-3.88-24.32-13.9-28.36-28.79-3-10.93-3.36-22.12-2.89-33.35.33-8,1.24-15.85,3.77-23.5,4.62-14,14.07-22.88,28.42-26.19A70.88,70.88,0,0,1,544,2.34c15,4,23.73,14.13,27.69,28.82C574.09,40,574.45,49,574.74,57.82Zm-68,2c.64,5.23,1,11.38,2.24,17.36,1.28,6.4,5.41,10.58,12,11.69a29.82,29.82,0,0,0,7.19.26c8.39-.61,13-4.27,14.79-12.54a85,85,0,0,0,0-34.84c-1.51-7.41-6.17-11.79-13.82-12.55-11.66-1.15-19,3.06-20.82,14.37C507.57,48.63,507.33,53.78,506.74,59.82Z"/>
        <path class="cls-1" d="M783.55,57.91c-.11,10-.65,19.9-3.73,29.51-5,15.62-15.85,24.5-31.79,27.29a73.58,73.58,0,0,1-29.19-.62c-16.45-3.74-26.06-14.36-30.07-30.41-2.95-11.81-3.22-23.86-2.19-35.88a97.32,97.32,0,0,1,3.74-20.21c4.23-13.69,13.76-22.24,27.74-25.54a70.8,70.8,0,0,1,35.24.38c15,4.06,23.59,14.38,27.44,29.07C783,40.16,783.46,49,783.55,57.91Zm-67.89,1.4c.59,5.4.88,11,1.88,16.58,1.24,6.83,5.07,11.71,12.32,13a29.83,29.83,0,0,0,7.19.3c8.61-.66,13.19-4.46,15-13a85.35,85.35,0,0,0,.29-32.91c-1.62-9.09-6-13.29-14.61-14.11-11.4-1.09-18.48,3-20.41,14.3C716.45,48.61,716.22,53.85,715.66,59.31Z"/>
        <path class="cls-1" d="M670.73,9.29c-5.26,8.29-10.44,16.48-15.47,24.43-4.32-1.39-8.31-3.24-12.48-3.85a51.35,51.35,0,0,0-14.33-.17c-7.43,1.06-10.74,6.79-11.67,13.48A157.32,157.32,0,0,0,615.42,65a67,67,0,0,0,1.83,14.27c1.45,6.64,5.54,11,12.64,11.43A58.44,58.44,0,0,0,641.48,90c3.59-.52,5.71-3.15,6.17-6.65.52-4,.57-8.09.86-12.6H629.17c.29-2.83.47-5.18.77-7.52.61-4.77,1.32-9.53,1.89-14.31.21-1.78.82-2.6,2.79-2.59,12.72.08,25.45.06,38.17,0,1.67,0,2.34.5,2.33,2.28q-.06,31.93,0,63.86c0,.49-.1,1-.19,1.79h-2.71c-4.32,0-8.65-.14-13,0-10.19.4-20.38,1.33-30.57,1.32-10.48,0-20.47-2.35-28.61-9.67-6.42-5.79-10-13.23-11.74-21.51a121.29,121.29,0,0,1,.14-53.12c3.86-16.67,14.43-26.69,31.35-29.73C634.52-1,649-.5,663.1,5.23c2.07.84,4,1.95,6,3A15.89,15.89,0,0,1,670.73,9.29Z"/>
        <path class="cls-1" d="M462,9,446.13,34c-.69-.29-1.29-.49-1.86-.77a39.47,39.47,0,0,0-23.94-3.8,13.17,13.17,0,0,0-10.57,7.74c-2.65,5.61-3.36,11.66-3.28,17.72.09,7.29.11,14.67,1.29,21.83,1.77,10.82,7,15.23,20.79,14.13a22.39,22.39,0,0,0,2.71-.39c4.53-.89,6.71-3.12,7.54-7.75a19.16,19.16,0,0,0,.39-3.2c.05-2.82,0-5.63,0-8.88H420.12c.41-3.18.76-5.94,1.13-8.7.6-4.52,1.29-9,1.79-13.56.18-1.65,1-2,2.43-2q19.08,0,38.16,0c1.92,0,2.64.62,2.61,2.59-.09,6.23,0,12.47,0,18.7,0,14.55,0,29.1.05,43.64,0,2.4-.64,3.3-3.07,3a38.54,38.54,0,0,0-5.48,0c-12.68.47-25.36,1.31-38,1.34-10.56,0-20.62-2.4-28.76-9.86-6.44-5.89-10-13.46-11.66-21.82-3.65-18-3.91-36.15.66-54.06,4.33-17,15.89-26.08,32.89-28.66,14.1-2.14,28-1.57,41.35,4C456.72,6.28,459.17,7.66,462,9Z"/>
        <path class="cls-1" d="M368.62,29H323.93V44h32.78c-1.21,9-2.37,17.59-3.57,26.45H323.92V87.61c1.08.07,2.2.2,3.32.2,12.8,0,25.61.08,38.41,0,2.44,0,3.08.71,3,3.09-.15,7.71-.06,15.43-.06,23.31-1,.06-1.82.14-2.63.14-22.78,0-45.57,0-68.35.07-2.36,0-2.92-.74-2.92-3q.09-53.39,0-106.76c0-2.59.85-3.21,3.3-3.2q33.8.12,67.6,0c2.37,0,3.12.59,3.07,3C368.53,12.54,368.62,20.6,368.62,29Z"/>
        <path class="cls-1" d="M29.3,114.19H.2c-.05-1-.14-1.89-.14-2.77Q.06,58.05,0,4.67C0,2.13.7,1.4,3.21,1.45c7.81.15,15.63.12,23.44,0,2.14,0,2.84.59,2.84,2.81q-.1,53.76,0,107.5C29.44,112.5,29.36,113.24,29.3,114.19Z"/>
        <path class="cls-1" d="M250.11,114V5c0-3.45,0-3.45,3.57-3.45,7.73,0,15.45,0,23.18,0,2,0,2.78.59,2.77,2.69q-.06,53.85,0,107.7c0,1.24.17,2.5-1.81,2.48-8.89-.07-17.79,0-26.68,0A5.27,5.27,0,0,1,250.11,114Z"/>
      </g>
    </g>
  </g>
</svg>
