<svg xmlns="http://www.w3.org/2000/svg" viewBox="0 0 178.43 98.86"><defs><style>.cls-1{fill:#04befa;}</style></defs><title>Ресурс 11</title><g id="Слой_2" data-name="Слой 2"><g id="Слой_1-2" data-name="Слой 1"><path class="cls-1" d="M48.81,91.05q0,7.8-10.15,7.81H10c-3.64,0-6.23-.8-7.74-2.41S0,92.23,0,88.59V13.85Q0,3.06,8.27,3.06t8.26,11V83.37H37.7Q48.82,83.37,48.81,91.05Z"/><path class="cls-1" d="M73.66,9.56a9.45,9.45,0,0,1-2.78,6.85,9.09,9.09,0,0,1-6.78,2.84,9.31,9.31,0,0,1-6.85-2.84,9.31,9.31,0,0,1-2.84-6.85,9.09,9.09,0,0,1,2.84-6.78A9.45,9.45,0,0,1,64.1,0a9.22,9.22,0,0,1,6.72,2.84A9.22,9.22,0,0,1,73.66,9.56ZM72.24,88.28q0,10.57-8.21,10.58t-8.2-10.58V37.33q0-10.57,8.2-10.58T72.24,37.2Z"/><path class="cls-1" d="M135.9,76.79a19.23,19.23,0,0,1-8.53,16.43Q119.72,98.7,109,98.69q-15,0-22.92-8.27a8.57,8.57,0,0,1-2.68-6q0-7.26,7.26-7.26c1.7,0,4.43,1.21,8.21,3.63s7.37,3.63,10.77,3.63a13.63,13.63,0,0,0,6.62-1.53,5.64,5.64,0,0,0,3.44-5.22q0-4.32-8.79-8.28-14.26-6.24-16.18-7.51Q86,56,86,47.12a18.52,18.52,0,0,1,7.77-15.54q7-5.22,17.06-5.22a35.6,35.6,0,0,1,14.39,3.31q9,3.94,9,9.93a6.76,6.76,0,0,1-1.91,4.91,6.45,6.45,0,0,1-4.84,2c-1.52,0-4.16-1-7.89-3.06s-6.84-3.05-9.3-3.05a10.48,10.48,0,0,0-5.73,1.53,5.25,5.25,0,0,0-2.93,4.83q0,3.06,4,5,6.61,2.94,13.37,5.86A53.57,53.57,0,0,1,131.19,65Q135.9,69.15,135.9,76.79Z"/><path class="cls-1" d="M178.43,33.62c0,3.35-1.54,5.52-4.64,6.45-1.47.44-2,.61-6.37.61V88.41q0,10.45-8.26,10.45-7.87,0-7.88-10.56V40.73s-1.84,0-2.45,0a9.65,9.65,0,0,1-6-1.94,6.07,6.07,0,0,1-2.65-5.16q0-7.1,11.1-7.1V14.69q0-10.33,8-10.33t8.14,10.44V26.5c4.39,0,4.81.16,6.37.67A6.17,6.17,0,0,1,178.43,33.62Z"/></g></g></svg>