<svg xmlns="http://www.w3.org/2000/svg" viewBox="0 0 438.93 107.03"><defs><style>.cls-1{fill:#ffd60b;}.cls-2{fill:#fc63ea;}.cls-3{fill:#fff;}.cls-4{fill:#cecece;}</style></defs><title>Ресурс 2</title><g id="Слой_2" data-name="Слой 2"><g id="Слой_1-2" data-name="Слой 1"><path class="cls-1" d="M49.2,99q0,7.88-10.23,7.87H10.1c-3.67,0-6.27-.8-7.8-2.42S0,100.18,0,96.51V21.17Q0,10.29,8.33,10.3t8.33,11.13V91.25H38Q49.21,91.25,49.2,99Z"/><path class="cls-1" d="M182.49,96.29q0,10.5-8.37,10.5-8.1,0-8.1-10.5V64.78q0-16.22-13.75-16.21T138.66,64.71V96.08q0,10.71-8.1,10.71-8.37,0-8.37-10.72V45.42q0-10.59,8.17-10.59a7,7,0,0,1,6.48,3.5c.43,1.21.91,2.46,1.43,3.76l.13.26q6.61-7.92,18.8-7.91T176,41.76q6.48,7.34,6.49,19.78Z"/><path class="cls-1" d="M223,34.44a36.09,36.09,0,0,1,13,2.3q8.06,3.07,8.06,8.83,0,6.78-6.42,6.78a16,16,0,0,1-6.42-1.6,19.64,19.64,0,0,0-8.09-1.6,14.93,14.93,0,0,0-13,6.89A24.51,24.51,0,0,0,206,70.58q0,9.18,4.11,14.92,4.62,6.65,13.48,6.64a24.38,24.38,0,0,0,8.34-2q5.13-2,6.29-2a6.11,6.11,0,0,1,4.75,2,7.08,7.08,0,0,1,1.8,4.93q0,6.78-11.77,10.36a36.27,36.27,0,0,1-10.37,1.41q-15.34,0-24.31-10.62-8.56-10-8.57-25.59,0-15.35,8.83-25.46Q207.88,34.44,223,34.44Z"/><path class="cls-1" d="M312.32,96.27q0,10.59-8.21,10.58t-8.2-10.57V65.21q0-16.51-13-16.51-7.08,0-10.81,4.77-3.47,4.26-3.47,11.48V96.28q0,10.57-8.27,10.57t-8.14-10.57V15.21q0-10.69,8.14-10.7t8.27,10.69q0,26.91.13,27.3,6.33-7.76,18.35-7.75T306,42q6.33,7.1,6.33,19.35Z"/><path class="cls-1" d="M382.71,67A8.14,8.14,0,0,1,380,73.5a10.44,10.44,0,0,1-7.07,2.35H334.3A16.44,16.44,0,0,0,339.65,88a18.06,18.06,0,0,0,12.62,4.64q6.24,0,14.07-4t8.61-4q6.36,0,6.37,6.48a8,8,0,0,1-1.91,4.58Q375.35,101,367,104.06a44.12,44.12,0,0,1-15.12,2.67q-15.13,0-24.65-10.67-9-10.17-9-25.54,0-14.86,9.22-25.35t23.95-10.49a29.62,29.62,0,0,1,22.17,9.6A31.64,31.64,0,0,1,382.71,67ZM366.83,64.8a18.87,18.87,0,0,0-4.38-11.95A13.91,13.91,0,0,0,351.33,48a15.91,15.91,0,0,0-11.76,4.82A18.35,18.35,0,0,0,334.3,64.8Z"/><path class="cls-1" d="M438.93,85.12a19.2,19.2,0,0,1-8.54,16.43Q422.76,107,412.05,107q-15,0-22.93-8.28a8.56,8.56,0,0,1-2.67-6q0-7.26,7.26-7.26c1.7,0,4.43,1.2,8.21,3.63s7.37,3.63,10.77,3.63a13.63,13.63,0,0,0,6.62-1.53A5.64,5.64,0,0,0,422.75,86q0-4.32-8.79-8.27-14.26-6.24-16.18-7.52Q389,64.37,389,55.45a18.49,18.49,0,0,1,7.76-15.54q7-5.23,17.07-5.23A35.7,35.7,0,0,1,428.23,38q9,3.95,9,9.93a6.78,6.78,0,0,1-1.91,4.9,6.45,6.45,0,0,1-4.84,2q-2.29,0-7.9-3.06t-9.3-3.06a10.48,10.48,0,0,0-5.73,1.53,5.28,5.28,0,0,0-2.93,4.84q0,3.06,3.95,5Q415.23,63,422,65.89a53.34,53.34,0,0,1,12.23,7.39Q438.92,77.48,438.93,85.12Z"/><path class="cls-2" d="M113.51,78.41q0,13.78-7.79,21.2T84.14,107q-13.67,0-21.52-7.48T54.76,78.41V45.46q0-10.35,8.11-10.35h42.66q8,0,8,10.35Z"/><path class="cls-2" d="M76.35,64.58c0,11.67-8.32,21.14-18.58,21.14S39.44,77,38.51,64.58c-.42-5.58-.64-12,2.48-15.82,3.38-4.11,11.43-5.33,16.78-5.33C68,43.43,76.35,52.9,76.35,64.58Z"/><path class="cls-3" d="M54.83,54.65V75.17a1.86,1.86,0,0,1-2.68,1.66c-3.82-1.85-6-7.44-6.61-12.26-.38-2.81-1.1-8.46.47-10.72,1.11-1.61,4.45-2.74,6.31-2.75C53.66,51.09,54.83,53.31,54.83,54.65Z"/><path class="cls-4" d="M75.19,25.12a1.48,1.48,0,0,1-1.14-.53c-.36-.42-3.48-4.22-3.56-7.54-.06-2.77,1.7-4.54,3.11-6a5.46,5.46,0,0,0,1.73-2.35c.4-2.61-1.84-5.23-2.92-6A1.5,1.5,0,1,1,74.18.29c2,1.45,4.71,5,4.12,8.9-.26,1.68-1.43,2.87-2.57,4S73.46,15.49,73.49,17c0,1.93,2.07,4.75,2.85,5.68a1.5,1.5,0,0,1-.18,2.11A1.47,1.47,0,0,1,75.19,25.12Z"/><path class="cls-4" d="M84.63,25.12a1.48,1.48,0,0,1-1.14-.53c-.36-.42-3.49-4.22-3.56-7.54-.06-2.77,1.7-4.54,3.11-6a5.64,5.64,0,0,0,1.73-2.35c.4-2.61-1.84-5.23-2.93-6A1.5,1.5,0,0,1,83.62.29c2,1.45,4.71,5,4.12,8.9-.26,1.68-1.44,2.87-2.58,4S82.9,15.49,82.93,17c0,1.93,2.07,4.75,2.85,5.68a1.5,1.5,0,0,1-.18,2.11A1.49,1.49,0,0,1,84.63,25.12Z"/><path class="cls-4" d="M94.37,25.12a1.5,1.5,0,0,1-1.14-.53c-.36-.42-3.48-4.22-3.56-7.54-.06-2.77,1.7-4.54,3.11-6a5.59,5.59,0,0,0,1.74-2.35c.39-2.61-1.85-5.23-2.93-6A1.5,1.5,0,1,1,93.36.29c2,1.45,4.71,5,4.12,8.9-.26,1.68-1.43,2.87-2.57,4S92.64,15.49,92.67,17c0,1.93,2.07,4.75,2.85,5.68a1.5,1.5,0,0,1-.18,2.11A1.47,1.47,0,0,1,94.37,25.12Z"/></g></g></svg>