<svg xmlns="http://www.w3.org/2000/svg" viewBox="0 0 177.73 72.36"><defs><style>.cls-1{fill:#04befa;}</style></defs><title>Ресурс 8</title><g id="Слой_2" data-name="Слой 2"><g id="Слой_1-2" data-name="Слой 1"><path class="cls-1" d="M97.5,61.76q0,10.35-8,10.34T81.54,61.76V30.24q0-15.81-11.61-15.82-6.51,0-10.08,4.6-3.06,4.23-3.06,11V61.74q0,10.37-8,10.36T40.84,61.74V30.41q0-16-12.13-16Q15.94,14.42,16,29.64v32.1Q16,72.11,8,72.1T0,61.75V11.25Q0,1,7.91,1,14,1,16,7.66q6.63-7,17.23-7A22,22,0,0,1,52.7,11.23Q61,.64,74,.64,85.24.64,91.5,8.29q6,7.16,6,18.51Z"/><path class="cls-1" d="M177.73,32.41a7.89,7.89,0,0,1-3,6.58,12.47,12.47,0,0,1-7.85,2.36H124a15.8,15.8,0,0,0,5.93,12.18,21.27,21.27,0,0,0,14,4.66q6.93,0,15.62-4t9.54-4q7.08,0,7.07,6.51a7.56,7.56,0,0,1-2.11,4.59q-4.51,5.37-13.82,8.43a53.71,53.71,0,0,1-16.78,2.68q-16.77,0-27.35-10.72-10-10.22-10-25.65a35.22,35.22,0,0,1,10.22-25.46Q126.55,0,142.9,0a34.58,34.58,0,0,1,24.6,9.63Q177.73,19.27,177.73,32.41ZM160.1,30.24a17.9,17.9,0,0,0-4.86-12q-4.59-4.85-12.34-4.85a18.58,18.58,0,0,0-13,4.85,17.56,17.56,0,0,0-5.85,12Z"/></g></g></svg>