<svg xmlns="http://www.w3.org/2000/svg" viewBox="0 0 416.07 121.35"><defs><style>.cls-1{fill:#04befa;}.cls-2{fill:#03bdf8;}</style></defs><title>Ресурс 12</title><g id="Слой_2" data-name="Слой 2"><g id="Слой_1-2" data-name="Слой 1"><path class="cls-1" d="M362.29,29.26c0,3.35-1.54,5.51-4.64,6.45-1.47.43-2,.61-6.37.61V84.05q0,10.45-8.27,10.45-7.87,0-7.87-10.57V36.37h-2.45a9.7,9.7,0,0,1-6-1.94A6.08,6.08,0,0,1,324,29.27q0-7.1,11.1-7.1V10.33q0-10.33,8-10.33t8.14,10.44v11.7c4.38,0,4.81.16,6.37.67A6.18,6.18,0,0,1,362.29,29.26Z"/><path class="cls-2" d="M61.38,87.45a6.57,6.57,0,0,1-2.15,5.1,7.57,7.57,0,0,1-5.29,2q-4,0-8.2-4.91L16.6,54.75,16,54.12V84.24Q16,94.5,7.86,94.5,0,94.5,0,84.16V11.89Q0,1.42,9.94,1.42h18q13.71,0,22.14,6.67,9.18,7.17,9.18,20.63,0,23.27-24.78,25L57.35,79Q61.37,83.42,61.38,87.45Zm-18.74-58q0-13.53-14.92-13.52H16v27a51.09,51.09,0,0,0,10.49.75Q42.63,43.68,42.64,29.41Z"/><path class="cls-2" d="M131.36,54.65a8,8,0,0,1-2.92,6.56,11.55,11.55,0,0,1-7.51,2.35h-41a16.07,16.07,0,0,0,5.69,12.16A19.86,19.86,0,0,0,99,80.37q6.63,0,15-4t9.14-4q6.77,0,6.77,6.49a7.69,7.69,0,0,1-2,4.58q-4.34,5.35-13.24,8.4A49.55,49.55,0,0,1,98.53,94.5q-16.07,0-26.2-10.7-9.6-10.18-9.59-25.58a35.9,35.9,0,0,1,9.79-25.4q9.8-10.5,25.46-10.5a32.42,32.42,0,0,1,23.57,9.61Q131.36,41.55,131.36,54.65Zm-16.89-2.16a18.24,18.24,0,0,0-4.66-12q-4.4-4.83-11.82-4.84A17.4,17.4,0,0,0,85.5,40.52a17.87,17.87,0,0,0-5.61,12Z"/><path class="cls-2" d="M201.35,57.79q0,14.68-7.76,24.95A27.07,27.07,0,0,1,170.84,94a22.09,22.09,0,0,1-17.29-7.75h-.38v24.28q0,10.8-7.76,10.81-8.13,0-8.13-10.81V32.74q0-10.43,8-10.42a6.75,6.75,0,0,1,6.87,4.7,25.88,25.88,0,0,0,1,3.18q5.47-7.87,18-7.88,14.4,0,22.69,10.89Q201.35,43,201.35,57.79Zm-16.15.13q0-8.55-3.56-14.2a13.61,13.61,0,0,0-12.33-6.78,14.84,14.84,0,0,0-12.71,6.28q-4.08,5.52-4.07,13.94V60.3a20.76,20.76,0,0,0,4.32,13.19,15,15,0,0,0,12.33,5.91,14,14,0,0,0,12.59-6.91Q185.21,66.7,185.2,57.92Z"/><path class="cls-2" d="M272.38,58.53q0,15.15-8.65,25.33-9,10.69-23.94,10.7-14.64,0-23.93-10.83-8.79-10.31-8.79-25.2,0-15.15,8.66-25.34Q225,22.24,239.79,22.24q15,0,24.06,10.82Q272.39,43.25,272.38,58.53ZM239.79,36.88A14.41,14.41,0,0,0,227,43.78q-3.72,5.86-3.72,14.68T227.09,73a14.3,14.3,0,0,0,12.7,6.9A14.13,14.13,0,0,0,252.5,73q3.7-5.74,3.72-14.56T252.5,43.9A14.26,14.26,0,0,0,239.79,36.88Z"/><path class="cls-2" d="M319,30.25q0,4.11-4.65,6.56l-9.54,3.87q-5.81,2.57-7.61,6.56-1.54,3.34-1.54,10.17V84.18q0,10.3-8.26,10.3t-8.12-10.43V33.34q0-10.43,8.12-10.43a6.34,6.34,0,0,1,6.45,4.26,30.23,30.23,0,0,0,1.55,4.9h.13a24.4,24.4,0,0,1,6.77-6.9,14.85,14.85,0,0,1,8.57-2.9,8.08,8.08,0,0,1,5.87,2.19A7.7,7.7,0,0,1,319,30.25Z"/><path class="cls-1" d="M416.07,72.39a19.15,19.15,0,0,1-8.51,16.38,30.58,30.58,0,0,1-18.29,5.46q-15,0-22.86-8.25a8.54,8.54,0,0,1-2.67-6q0-7.24,7.24-7.24,2.55,0,8.19,3.62T389.91,80a13.63,13.63,0,0,0,6.6-1.52,5.63,5.63,0,0,0,3.43-5.21q0-4.32-8.76-8.26-14.24-6.21-16.13-7.49-8.78-5.84-8.77-14.73A18.5,18.5,0,0,1,374,27.3q7-5.21,17-5.2a35.6,35.6,0,0,1,14.35,3.3q9,3.95,9,9.91a6.77,6.77,0,0,1-1.91,4.89,6.43,6.43,0,0,1-4.82,2c-1.53,0-4.15-1-7.88-3s-6.81-3-9.27-3a10.49,10.49,0,0,0-5.71,1.52,5.24,5.24,0,0,0-2.92,4.83q0,3,3.93,4.95,6.6,2.93,13.34,5.84a53.43,53.43,0,0,1,12.19,7.37Q416.07,64.77,416.07,72.39Z"/></g></g></svg>