<svg xmlns="http://www.w3.org/2000/svg" viewBox="0 0 466.29 113.54"><defs><style>.cls-1{fill:#4acda1;}.cls-2{fill:#f47340;stroke:#fff;stroke-miterlimit:10;stroke-width:3px;}.cls-3{fill:#fff;}</style></defs><title>Ресурс 3</title><g id="Слой_2" data-name="Слой 2"><g id="Слой_1-2" data-name="Слой 1"><path class="cls-1" d="M61.05,68.25q0,13.91-9.84,22.06Q42,98,27.84,98a51.23,51.23,0,0,1-16.73-2.81Q0,91.45,0,84.68a6.62,6.62,0,0,1,2.17-5.24,8,8,0,0,1,5.49-1.91q1.41,0,5.88,1.78,6.12,2.31,6.38,2.43A33.39,33.39,0,0,0,30,83.27a13.6,13.6,0,0,0,9.77-4,12.93,12.93,0,0,0,4.16-9.63q0-8.16-11.12-12.75L12.13,48.46Q1,41.83,1,28.82q0-12.1,9.33-19.25Q18.9,2.94,31.42,2.94q12.9,0,19.79,5.33,3.84,2.91,3.84,6.72a6.32,6.32,0,0,1-2.11,5,7.76,7.76,0,0,1-5.3,1.84q-2.3,0-7.86-2.23a25.74,25.74,0,0,0-9.13-2.24,13.88,13.88,0,0,0-8.87,2.87,9.7,9.7,0,0,0-3.64,8.1A7.41,7.41,0,0,0,21.71,35,64,64,0,0,0,31.8,39.56q15.45,6,20.05,9.43Q61,55.88,61.05,68.25Z"/><path class="cls-1" d="M131.29,58.24a8.23,8.23,0,0,1-2.75,6.58,10.57,10.57,0,0,1-7.11,2.36H82.63A16.5,16.5,0,0,0,88,79.38,18.12,18.12,0,0,0,100.69,84q6.27,0,14.15-4t8.64-4q6.4,0,6.41,6.52A8,8,0,0,1,128,87.1q-4.08,5.37-12.51,8.43a44.31,44.31,0,0,1-15.2,2.69q-15.21,0-24.78-10.73-9.08-10.21-9.07-25.67,0-15,9.26-25.48T99.75,25.8A29.77,29.77,0,0,1,122,35.44,31.79,31.79,0,0,1,131.29,58.24Zm-16-2.17a18.92,18.92,0,0,0-4.41-12,14,14,0,0,0-11.17-4.85,16,16,0,0,0-11.82,4.85,18.41,18.41,0,0,0-5.3,12Z"/><path class="cls-1" d="M177.1,34.09c0,2.72-1.53,4.88-4.6,6.5l-9.45,3.82q-5.75,2.55-7.53,6.51C154.5,53.13,154,56.48,154,61V87.5q0,10.22-8.18,10.21t-8.05-10.33V37.15q0-10.33,8.05-10.33A6.28,6.28,0,0,1,152.2,31a29.53,29.53,0,0,0,1.53,4.85h.13a24.16,24.16,0,0,1,6.7-6.83,14.76,14.76,0,0,1,8.5-2.88,8,8,0,0,1,5.81,2.17A7.62,7.62,0,0,1,177.1,34.09Z"/><path class="cls-1" d="M280.39,9.45a9.33,9.33,0,0,1-2.74,6.77A9,9,0,0,1,270.94,19a9.24,9.24,0,0,1-6.77-2.81,9.24,9.24,0,0,1-2.81-6.77,9,9,0,0,1,2.81-6.7A9.34,9.34,0,0,1,270.94,0a9.08,9.08,0,0,1,6.64,2.81A9.05,9.05,0,0,1,280.39,9.45ZM279,87.25q0,10.45-8.11,10.46t-8.11-10.46V36.89q0-10.45,8.11-10.45T279,36.77Z"/><path class="cls-1" d="M319.69,25.93a36,36,0,0,1,13,2.3q8,3.06,8,8.81,0,6.76-6.41,6.77a15.92,15.92,0,0,1-6.4-1.6,19.78,19.78,0,0,0-8.08-1.59,14.92,14.92,0,0,0-12.94,6.87A24.51,24.51,0,0,0,302.7,62q0,9.17,4.1,14.9,4.62,6.61,13.46,6.62a24.42,24.42,0,0,0,8.32-2q5.13-2,6.28-2a6.11,6.11,0,0,1,4.75,2,7.08,7.08,0,0,1,1.79,4.92q0,6.77-11.75,10.34a36.05,36.05,0,0,1-10.34,1.41Q304,98.22,295,87.62q-8.57-10-8.56-25.55,0-15.33,8.81-25.41Q304.62,25.92,319.69,25.93Z"/><path class="cls-1" d="M410.18,58.24a8.21,8.21,0,0,1-2.76,6.58,10.53,10.53,0,0,1-7.1,2.36h-38.8a16.53,16.53,0,0,0,5.37,12.2A18.15,18.15,0,0,0,379.57,84q6.29,0,14.15-4t8.65-4q6.4,0,6.4,6.52a8,8,0,0,1-1.91,4.59q-4.1,5.37-12.52,8.43a44.31,44.31,0,0,1-15.2,2.69q-15.19,0-24.78-10.73-9.06-10.21-9.06-25.67,0-15,9.26-25.48T378.63,25.8a29.79,29.79,0,0,1,22.29,9.64A31.84,31.84,0,0,1,410.18,58.24Zm-16-2.17a19,19,0,0,0-4.4-12,14,14,0,0,0-11.18-4.85,16,16,0,0,0-11.81,4.85,18.36,18.36,0,0,0-5.3,12Z"/><path class="cls-1" d="M466.29,76.38a19.28,19.28,0,0,1-8.56,16.47q-7.67,5.49-18.39,5.49-15.07,0-23-8.3a8.57,8.57,0,0,1-2.68-6q0-7.28,7.28-7.28,2.55,0,8.24,3.64T440,84a13.68,13.68,0,0,0,6.64-1.53,5.65,5.65,0,0,0,3.45-5.24q0-4.33-8.81-8.3Q427,62.72,425,61.43q-8.82-5.86-8.82-14.81A18.56,18.56,0,0,1,424,31q7-5.23,17.12-5.24a35.8,35.8,0,0,1,14.43,3.32q9.07,4,9.07,10A6.79,6.79,0,0,1,462.71,44a6.44,6.44,0,0,1-4.85,2q-2.3,0-7.92-3.07t-9.32-3.06a10.55,10.55,0,0,0-5.75,1.53,5.29,5.29,0,0,0-2.94,4.85q0,3.08,4,5,6.64,2.93,13.41,5.87a53.38,53.38,0,0,1,12.26,7.41Q466.29,68.72,466.29,76.38Z"/><circle class="cls-2" cx="216.21" cy="61.19" r="50.85"/><path class="cls-3" d="M215.25,83.15a7.28,7.28,0,0,1-10.28,0L189,67.22a7.27,7.27,0,0,1,10.28-10.28l9.49,9.49a1.82,1.82,0,0,0,2.59,0l25.69-25.69A7.27,7.27,0,1,1,247.37,51Z"/></g></g></svg>