<svg xmlns="http://www.w3.org/2000/svg" viewBox="0 0 436.88 126.98"><defs><style>.cls-1{fill:#969696;}.cls-2{fill:#04befa;}.cls-3{fill:#fff;}</style></defs><title>Ресурс 4</title><g id="Слой_2" data-name="Слой 2"><g id="Слой_1-2" data-name="Слой 1"><path class="cls-1" d="M214.5,33.56c0,3.36-1.55,5.52-4.65,6.45-1.46.44-2,.61-6.37.61V88.36q0,10.44-8.26,10.44-7.87,0-7.88-10.56V40.67h-2.45a9.66,9.66,0,0,1-6-1.93,6.07,6.07,0,0,1-2.65-5.17q0-7.09,11.1-7.1V14.63q0-10.32,8-10.33t8.13,10.45V26.44c4.39,0,4.81.17,6.37.68A6.16,6.16,0,0,1,214.5,33.56Z"/><path class="cls-2" d="M185,42.23A11.25,11.25,0,0,1,178,40a7.63,7.63,0,0,1-3.28-6.42c0-3.95,2.2-8.67,12.7-8.67l16.27,0c4.4,0,5.1.17,6.82.73a7.79,7.79,0,0,1,5.8,8c0,4.06-2,6.81-5.76,7.94-1.74.52-2.48.68-6.85.68l-17.84,0Z"/><path class="cls-3" d="M203.72,26.37c4.42,0,4.85.17,6.42.69a6.21,6.21,0,0,1,4.69,6.5c0,3.38-1.56,5.56-4.69,6.5-1.47.44-2,.62-6.42.62l-16.28,0H185a9.77,9.77,0,0,1-6.06-1.95,6.15,6.15,0,0,1-2.67-5.21q0-7.17,11.2-7.17l16.28,0m0-3h0l-16.28,0c-12.34,0-14.19,6.37-14.19,10.17a9.15,9.15,0,0,0,3.9,7.63,12.8,12.8,0,0,0,7.8,2.53h2.51l16.28,0c4.56,0,5.41-.19,7.21-.73l.06,0c4.41-1.32,6.83-4.65,6.83-9.37a9.26,9.26,0,0,0-6.75-9.36l-.08,0c-2-.65-2.9-.81-7.28-.81Z"/><path class="cls-1" d="M168.35,76c-1.56.51-2,.67-6.37.67v11.7q0,10.44-8.13,10.44t-8-10.33V76.63q-11.1,0-11.1-7.1a6.07,6.07,0,0,1,2.65-5.16,9.67,9.67,0,0,1,6-1.94h2.45V14.87q0-10.57,7.88-10.57Q162,4.3,162,14.75V62.48c4.39,0,4.91.18,6.37.62,3.1.93,4.65,3.09,4.65,6.44A6.17,6.17,0,0,1,168.35,76Z"/><path class="cls-2" d="M145.94,78.2c-10.5,0-12.7-4.71-12.7-8.66a7.6,7.6,0,0,1,3.28-6.42,11.19,11.19,0,0,1,6.93-2.24h2.49l16.28,0c4.37,0,5.11.16,6.79.66,3.83,1.15,5.82,3.89,5.82,8a7.74,7.74,0,0,1-5.72,7.92c-1.8.6-2.5.76-6.89.76Z"/><path class="cls-3" d="M144.38,62.37h1.56l16.28,0c4.42,0,4.95.17,6.42.62,3.13.93,4.69,3.11,4.69,6.5a6.22,6.22,0,0,1-4.69,6.5c-1.57.51-2,.68-6.42.68l-16.28,0q-11.2,0-11.2-7.16a6.14,6.14,0,0,1,2.67-5.21,9.77,9.77,0,0,1,6.06-1.95h.91m0-3h-.94a12.74,12.74,0,0,0-7.8,2.53,9.13,9.13,0,0,0-3.9,7.63c0,3.79,1.85,10.16,14.2,10.16l16.27,0c4.39,0,5.3-.15,7.29-.81l.08,0a9.24,9.24,0,0,0,6.75-9.35c0-4.73-2.42-8.06-6.83-9.38l-.06,0c-1.8-.54-2.65-.72-7.22-.72l-16.27,0Z"/><path class="cls-1" d="M60.71,69.25q0,13.83-9.78,21.94Q41.78,98.8,27.69,98.8A50.91,50.91,0,0,1,11.05,96Q0,92.32,0,85.59a6.59,6.59,0,0,1,2.16-5.21,8,8,0,0,1,5.46-1.9q1.4,0,5.84,1.77c4.07,1.53,6.18,2.33,6.35,2.42a33.32,33.32,0,0,0,10,1.52,13.51,13.51,0,0,0,9.71-4,12.89,12.89,0,0,0,4.13-9.58q0-8.12-11-12.68L12.06,49.58Q1,43,1,30.05,1,18,10.29,10.9q8.51-6.59,21-6.59,12.83,0,19.69,5.3,3.81,2.89,3.81,6.68a6.24,6.24,0,0,1-2.1,5,7.67,7.67,0,0,1-5.27,1.83c-1.52,0-4.13-.74-7.81-2.22a25.63,25.63,0,0,0-9.08-2.22,13.85,13.85,0,0,0-8.83,2.85,9.67,9.67,0,0,0-3.62,8,7.37,7.37,0,0,0,3.56,6.6,64.15,64.15,0,0,0,10,4.56q15.37,6,19.94,9.39Q60.71,57,60.71,69.25Z"/><path class="cls-1" d="M131.55,59.3a8.18,8.18,0,0,1-2.73,6.54,10.48,10.48,0,0,1-7.07,2.35H83.17a16.4,16.4,0,0,0,5.34,12.13A18,18,0,0,0,101.12,85q6.24,0,14.07-4t8.6-4q6.36,0,6.37,6.48A7.94,7.94,0,0,1,128.25,88q-4.06,5.34-12.44,8.38a44,44,0,0,1-15.12,2.67q-15.1,0-24.63-10.67-9-10.16-9-25.52Q67,48,76.24,37.52T100.18,27a29.65,29.65,0,0,1,22.17,9.59A31.66,31.66,0,0,1,131.55,59.3Zm-15.87-2.16A18.84,18.84,0,0,0,111.3,45.2a13.9,13.9,0,0,0-11.12-4.82A15.86,15.86,0,0,0,88.44,45.2a18.23,18.23,0,0,0-5.27,11.94Z"/><path class="cls-1" d="M238.69,9.53a9.41,9.41,0,0,1-2.77,6.83,9.08,9.08,0,0,1-6.76,2.83,9.31,9.31,0,0,1-6.83-2.83,9.31,9.31,0,0,1-2.83-6.83,9.09,9.09,0,0,1,2.83-6.76A9.41,9.41,0,0,1,229.16,0a9.19,9.19,0,0,1,6.7,2.83A9.17,9.17,0,0,1,238.69,9.53ZM237.28,88q0,10.55-8.18,10.54T220.92,88V37.21q0-10.55,8.18-10.55t8.18,10.42Z"/><path class="cls-1" d="M308.94,88.33q0,10.44-8.31,10.44-8.06,0-8.06-10.44V57q0-16.11-13.66-16.11t-13.53,16V88.12q0,10.66-8.05,10.65-8.32,0-8.32-10.66V37.77q0-10.53,8.12-10.53a7,7,0,0,1,6.44,3.48c.43,1.21.91,2.45,1.42,3.74l.13.26q6.57-7.86,18.69-7.87t18.69,7.29q6.44,7.28,6.44,19.65Z"/><path class="cls-1" d="M380,88.33a78.8,78.8,0,0,1-1.16,14.2q-2.3,12.3-11.28,18.57Q359.18,127,346.24,127,332,127,323,121q-5.64-3.82-5.64-8.54a6.23,6.23,0,0,1,1.86-4.71,6.65,6.65,0,0,1,4.8-1.79c1.46,0,4,.93,7.69,2.77a33.29,33.29,0,0,0,15.13,3.9q17.55,0,17.56-21V88.92h-.39q-6.27,9.74-18.45,9.74-13.73,0-22.18-11.52a39.9,39.9,0,0,1-7.69-24.43q0-14.6,7.95-24.83a27.64,27.64,0,0,1,22.94-11.26q11.92,0,17.82,8.72c1-5.21,3.72-7.82,8.07-7.82,3.08,0,5.17,1,6.28,3.07q1.15,2.31,1.16,7.3ZM365,63.92q0-9.62-3.6-15.51-4.38-7-13.38-7-7.73,0-12.1,7.18A26.89,26.89,0,0,0,332,62.9a26.67,26.67,0,0,0,3.73,14.35q4.38,7.05,12.35,7a14.83,14.83,0,0,0,12.74-6.41Q365,72.25,365,63.92Z"/><path class="cls-1" d="M436.88,77.27a19.13,19.13,0,0,1-8.51,16.38,30.55,30.55,0,0,1-18.28,5.46q-15,0-22.86-8.25a8.54,8.54,0,0,1-2.67-6q0-7.24,7.24-7.24,2.54,0,8.19,3.62t10.73,3.62a13.63,13.63,0,0,0,6.6-1.52,5.63,5.63,0,0,0,3.43-5.21q0-4.32-8.76-8.26-14.22-6.21-16.13-7.49-8.76-5.83-8.76-14.73a18.46,18.46,0,0,1,7.75-15.5q7-5.2,17-5.2a35.53,35.53,0,0,1,14.35,3.3q9,3.93,9,9.91a6.74,6.74,0,0,1-1.9,4.88,6.41,6.41,0,0,1-4.83,2c-1.52,0-4.15-1-7.87-3s-6.82-3-9.27-3a10.53,10.53,0,0,0-5.72,1.52,5.24,5.24,0,0,0-2.92,4.83q0,3,3.94,5,6.6,2.93,13.33,5.84a53.2,53.2,0,0,1,12.19,7.37Q436.88,69.65,436.88,77.27Z"/></g></g></svg>