<svg xmlns="http://www.w3.org/2000/svg" viewBox="0 0 135.97 135.97">
  <defs>
    <style>
      .cls-1 {
        fill: #fff;
      }
    </style>
  </defs>
  <title>Ресурс 16</title>
  <g id="Слой_2" data-name="Слой 2">
    <g id="Слой_1-2" data-name="Слой 1">
      <g>
        <path class="cls-1" d="M114.78,50.11c-.39-1-.81-2-1.27-3a50,50,0,0,0-25.1-24.76c-.92-.41-1.84-.79-2.77-1.14a50.08,50.08,0,0,0-35.46.19q-1.36.52-2.7,1.14A50.06,50.06,0,0,0,22.38,48c-.33.75-.64,1.52-.93,2.29A50.11,50.11,0,0,0,21.62,86c.26.69.55,1.37.84,2a50.1,50.1,0,0,0,25.15,25.36c.85.39,1.72.75,2.59,1.09a50.11,50.11,0,0,0,35.55.14c1-.39,2-.8,3-1.26a50,50,0,0,0,24.88-24.91c.47-1,.9-2.08,1.3-3.14A50.13,50.13,0,0,0,114.78,50.11ZM50.22,85.89a25.36,25.36,0,1,1,35.86,0A25.36,25.36,0,0,1,50.22,85.89Z"/>
        <g>
          <g>
            <path class="cls-1" d="M59.81,4.71l-9.55,16.5a9.45,9.45,0,0,0,8.15,14.18l19.06.06A9.44,9.44,0,0,0,85.69,21.3L76.18,4.74A9.45,9.45,0,0,0,59.81,4.71Z"/>
            <path class="cls-1" d="M59.71,131.21l-9.45-16.56a9.45,9.45,0,0,1,8.23-14.13l19.06,0a9.45,9.45,0,0,1,8.14,14.2l-9.61,16.51A9.46,9.46,0,0,1,59.71,131.21Z"/>
          </g>
          <g>
            <path class="cls-1" d="M131.22,59.54l-16.53-9.48a9.44,9.44,0,0,0-14.15,8.19V77.32a9.45,9.45,0,0,0,14.19,8.17l16.52-9.59A9.44,9.44,0,0,0,131.22,59.54Z"/>
            <path class="cls-1" d="M4.73,59.93l16.52-9.51a9.44,9.44,0,0,1,14.16,8.17l0,19.06a9.44,9.44,0,0,1-14.16,8.2L4.72,76.29A9.44,9.44,0,0,1,4.73,59.93Z"/>
          </g>
        </g>
        <path class="cls-1" d="M106.85,17.41,88.43,22.33a9.45,9.45,0,0,0-4.27,15.78L97.6,51.64a9.45,9.45,0,0,0,15.82-4.2l5-18.44A9.45,9.45,0,0,0,106.85,17.41Z"/>
        <path class="cls-1" d="M17.33,106.79l5-18.39a9.44,9.44,0,0,1,15.8-4.18L51.61,97.74a9.45,9.45,0,0,1-4.29,15.8l-18.47,4.87A9.45,9.45,0,0,1,17.33,106.79Z"/>
        <g>
          <path class="cls-1" d="M118.57,106.68l-5-18.4a9.45,9.45,0,0,0-15.8-4.21L84.31,97.56a9.45,9.45,0,0,0,4.26,15.81l18.46,4.9A9.44,9.44,0,0,0,118.57,106.68Z"/>
          <path class="cls-1" d="M28.85,17.51l18.41,4.95A9.45,9.45,0,0,1,51.5,38.25L38,51.75a9.45,9.45,0,0,1-15.81-4.22L17.28,29.07A9.44,9.44,0,0,1,28.85,17.51Z"/>
        </g>
      </g>
    </g>
  </g>
</svg>
