<svg xmlns="http://www.w3.org/2000/svg" viewBox="0 0 315 111.57"><defs><style>.cls-1{fill:#7f7e7c;}</style></defs><title>Ресурс 7</title><g id="Слой_2" data-name="Слой 2"><g id="Слой_1-2" data-name="Слой 1"><path class="cls-1" d="M48,26.3C48,13,39.72,7,25.63,7,13.15,7,5.37,12.88,5.37,22.14c0,12.08,13.55,14,22.81,16.1C38.91,40.79,52.6,43.34,52.6,57.3,52.6,68.84,42.13,76.89,27,76.89,9.53,76.89,0,66.28,0,51.26c0-.61.77-1,1.39-1,1,0,1.43.61,1.43,1,0,15,8.32,22.81,24.28,22.81,13.42,0,22.82-6.84,22.82-16.77,0-11.94-13.29-14.36-22.41-16.51-10.33-2.41-25-4.69-25-18.38,0-11.27,8.86-18,23.75-18C41.6,4.43,50.85,12,50.85,26.3c0,.4-.64,1-1.46,1A1.3,1.3,0,0,1,48,26.3Z"/><path class="cls-1" d="M158.43,6.22c-.06.17-23.67,69.1-23.89,69.73s-.75.94-1.67.94-1.6-.41-1.78-.94-22.33-53.76-22.33-53.76S86.34,75.5,86.18,76a1.73,1.73,0,0,1-1.79.94A1.56,1.56,0,0,1,82.72,76c-.16-.43-24-69.55-24.07-69.75a1.4,1.4,0,0,1,1-1.62,1.35,1.35,0,0,1,1.64.73L84.45,72.67s22.63-53.09,22.75-53.45a1.84,1.84,0,0,1,3.11,0c.14.41,22.51,53.62,22.51,53.62S156,5.73,156.1,5.46a1.17,1.17,0,0,1,1.61-.79A1.16,1.16,0,0,1,158.43,6.22Z"/><path class="cls-1" d="M163.26,46.32a35.93,35.93,0,1,1,30,30A36,36,0,0,1,163.26,46.32ZM231.86,43a33.17,33.17,0,1,0-30.94,30.94A33.17,33.17,0,0,0,231.86,43Z"/><path class="cls-1" d="M197.55,12.79l5.74-3.33a3.29,3.29,0,0,0,0-5.7L197.53.45A3.29,3.29,0,0,0,192.6,3.3V10A3.29,3.29,0,0,0,197.55,12.79Z"/><path class="cls-1" d="M200,81.29,194.24,78a3.29,3.29,0,0,1,0-5.7L200,69a3.29,3.29,0,0,1,4.93,2.85v6.65A3.29,3.29,0,0,1,200,81.29Z"/><path class="cls-1" d="M278.92,4.75A36.08,36.08,0,1,0,315,40.82,36.08,36.08,0,0,0,278.92,4.75Zm0,69.24a33.37,33.37,0,1,1,33.37-33.36A33.37,33.37,0,0,1,278.92,74Z"/><path class="cls-1" d="M245.56,110.17a1.36,1.36,0,0,1-2.71.09V40.83h2.71Z"/></g></g></svg>