<svg xmlns="http://www.w3.org/2000/svg" viewBox="0 0 104.37 125.41">
  <defs>
    <style>
      .cls-1 {
        fill: #fff;
      }
    </style>
  </defs>
  <title>Ресурс 17</title>
  <g id="Слой_2" data-name="Слой 2">
    <g id="Слой_1-2" data-name="Слой 1">
      <path class="cls-1" d="M48.8,31l13.89-8.07a8,8,0,0,0,0-13.78l-13.92-8A8,8,0,0,0,36.81,8l0,16.11A8,8,0,0,0,48.8,31Z"/>
      <path class="cls-1" d="M54.68,124.32l-13.9-8.07a8,8,0,0,1,0-13.78l13.92-8a8,8,0,0,1,11.94,6.91l0,16.1A8,8,0,0,1,54.68,124.32Z"/>
      <path class="cls-1" d="M52.19,115.16A52.19,52.19,0,1,1,104.37,63,52.24,52.24,0,0,1,52.19,115.16Zm0-96.37A44.19,44.19,0,1,0,96.37,63,44.24,44.24,0,0,0,52.19,18.79Z"/>
    </g>
  </g>
</svg>
