<svg xmlns="http://www.w3.org/2000/svg" viewBox="0 0 376.51 109.52"><defs><style>.cls-1{fill:#353535;}.cls-2{fill:#fff;}.cls-3{fill:#ff7f49;}</style></defs><title>Ресурс 2</title><g id="Слой_2" data-name="Слой 2"><g id="Слой_1-2" data-name="Слой 1"><path class="cls-1" d="M136.24,100.07c-10.66,0-19.23-3.76-25.47-11.16-5.92-6.9-8.93-15.84-8.93-26.58,0-10.56,3.1-19.47,9.2-26.46,6.5-7.48,15.11-11.27,25.59-11.27A38,38,0,0,1,150.22,27c6,2.29,9,5.73,9,10.24,0,5.34-2.81,8.28-7.92,8.28a17.52,17.52,0,0,1-7-1.73,18.47,18.47,0,0,0-7.49-1.47,13.44,13.44,0,0,0-11.74,6.25,23.23,23.23,0,0,0-4,13.7c0,5.78,1.29,10.51,3.83,14.06,2.82,4,6.83,6,12.27,6A23.24,23.24,0,0,0,145,80.46c4.76-1.84,6.12-2.09,6.83-2.09a7.62,7.62,0,0,1,5.87,2.48,8.57,8.57,0,0,1,2.18,5.94c0,5.24-4.32,9.21-12.84,11.8A37.87,37.87,0,0,1,136.24,100.07Z"/><path class="cls-2" d="M136.63,26.1a36.4,36.4,0,0,1,13.06,2.3q8.06,3.08,8.06,8.84,0,6.78-6.42,6.78a16,16,0,0,1-6.42-1.6,19.85,19.85,0,0,0-8.1-1.6,14.94,14.94,0,0,0-13,6.9,24.54,24.54,0,0,0-4.24,14.55q0,9.2,4.11,14.94,4.62,6.63,13.49,6.63a24.61,24.61,0,0,0,8.35-2c3.42-1.32,5.52-2,6.29-2a6.14,6.14,0,0,1,4.76,2,7.1,7.1,0,0,1,1.79,4.93q0,6.78-11.78,10.37a36.17,36.17,0,0,1-10.37,1.41q-15.36,0-24.32-10.63-8.58-10-8.58-25.61,0-15.36,8.83-25.48,9.35-10.74,24.46-10.75m0-3c-10.94,0-19.93,4-26.72,11.79-6.35,7.27-9.57,16.5-9.57,27.44,0,11.11,3.13,20.38,9.3,27.56,6.52,7.74,15.48,11.68,26.6,11.68A39.34,39.34,0,0,0,147.47,100c9.24-2.81,13.92-7.26,13.92-13.24a10,10,0,0,0-2.57-6.94,9.15,9.15,0,0,0-7-3c-.83,0-2.15.17-7.37,2.19a21.38,21.38,0,0,1-7.27,1.78c-4.91,0-8.52-1.75-11-5.35-2.38-3.32-3.57-7.76-3.57-13.22a21.48,21.48,0,0,1,3.69-12.82,12,12,0,0,1,10.52-5.63,16.89,16.89,0,0,1,6.88,1.35A19.06,19.06,0,0,0,151.33,47c6,0,9.42-3.56,9.42-9.78,0-3.57-1.73-8.49-10-11.64a39.39,39.39,0,0,0-14.13-2.5Z"/><path class="cls-1" d="M226,62.46q0,15.24-8.71,25.48-9.09,10.75-24.07,10.75-14.73,0-24.07-10.88-8.83-10.36-8.83-25.35,0-15.24,8.7-25.48,9.35-11,24.2-11,15.1,0,24.2,10.88Q226,47.1,226,62.46ZM193.21,40.7a14.5,14.5,0,0,0-12.9,6.93q-3.75,5.91-3.74,14.77T180.44,77A14.39,14.39,0,0,0,193.21,84,14.22,14.22,0,0,0,206,77q3.73-5.79,3.74-14.64T206,47.76A14.34,14.34,0,0,0,193.21,40.7Z"/><path class="cls-1" d="M251.18,9.58a9.35,9.35,0,0,1-2.76,6.79,9,9,0,0,1-6.72,2.82,9.23,9.23,0,0,1-6.78-2.82,9.25,9.25,0,0,1-2.82-6.79,9,9,0,0,1,2.82-6.72A9.36,9.36,0,0,1,241.7.11a9.11,9.11,0,0,1,6.66,2.82A9.07,9.07,0,0,1,251.18,9.58Zm-1.41,78q0,10.49-8.13,10.48t-8.13-10.48V37.09q0-10.47,8.13-10.48T249.77,37Z"/><path class="cls-1" d="M318.41,87.68q0,10.38-8.26,10.37-8,0-8-10.37V56.57q0-16-13.57-16T275.14,56.5v31q0,10.58-8,10.57-8.26,0-8.26-10.58v-50q0-10.47,8.06-10.46a6.91,6.91,0,0,1,6.4,3.45q.65,1.8,1.41,3.72l.13.25q6.53-7.8,18.56-7.81T312,33.85q6.4,7.23,6.4,19.52Z"/><path class="cls-1" d="M376.51,76.67a19.33,19.33,0,0,1-8.58,16.52q-7.68,5.5-18.44,5.5-15.11,0-23.05-8.32a8.6,8.6,0,0,1-2.68-6q0-7.29,7.29-7.29c1.71,0,4.46,1.21,8.26,3.65s7.41,3.64,10.82,3.64a13.76,13.76,0,0,0,6.66-1.53,5.68,5.68,0,0,0,3.46-5.25q0-4.35-8.84-8.32Q337.07,63,335.15,61.69q-8.83-5.88-8.83-14.85a18.61,18.61,0,0,1,7.81-15.62q7-5.25,17.15-5.25a35.87,35.87,0,0,1,14.47,3.33q9.09,4,9.09,10a6.83,6.83,0,0,1-1.92,4.93,6.48,6.48,0,0,1-4.86,2q-2.31,0-7.94-3.07t-9.35-3.07A10.58,10.58,0,0,0,345,41.59a5.31,5.31,0,0,0-2.95,4.87c0,2,1.33,3.71,4,5q6.66,3,13.45,5.89a53.64,53.64,0,0,1,12.29,7.43Q376.51,69,376.51,76.67Z"/><path class="cls-3" d="M54.76,0a54.76,54.76,0,1,0,54.76,54.76A54.76,54.76,0,0,0,54.76,0Zm24.8,48.74H66.4V85.28C66.4,92.08,62.58,98,54.65,98S42.9,92.08,42.9,85.28V48.74H29.75c-7.93,0-12.46-4.53-12.46-11.32S21.82,26.1,29.75,26.1H79.56C87.48,26.1,92,30.63,92,37.42S87.48,48.74,79.56,48.74Z"/></g></g></svg>